# xmcd
#
# Track frame offsets:
#	150
#	9853
#	20775
#	32461
#	49942
#	64520
#	81218
#	101869
#	113978
#	128039
#	141183
#	149278
#	160707
#	174738
#
# Disc length: 2529 seconds
# Revision: 0
# Processed by: cddbd v1.5.2PL0 Copyright (c) Steve Scherf et al.
# Submitted via: dBpowerAMP V12.0
#
DISCID=b909df0e
DTITLE=Johnny Cash - American III
DYEAR=2000
DGENRE=Country
TTITLE0=I won't back down
TTITLE1=Solitary man
TTITLE2=That lucky old sun
TTITLE3=One
TTITLE4=Nobody
TTITLE5=I see a darkness
TTITLE6=The mercy seat
TTITLE7=Would you lay with me
TTITLE8=American III
TTITLE9=Before my time
TTITLE10=Country trash
TTITLE11=Mary of the wild moor
TTITLE12=I'm leaving now
TTITLE13=Wayfaring stranger
EXTD=
EXTT0=
EXTT1=
EXTT2=
EXTT3=
EXTT4=
EXTT5=
EXTT6=
EXTT7=
EXTT8=
EXTT9=
EXTT10=
EXTT11=
EXTT12=
EXTT13=
PLAYORDER=
